<?xml version="1.0" encoding="UTF-8"?>
<svg id="b" data-name="Слой 2" xmlns="http://www.w3.org/2000/svg" width="175" height="55.14" viewBox="0 0 175 55.14">
  <g id="c" data-name="b">
    <g id="d" data-name="c">
      <path d="m126.77,21.9c-3.64.43-6.32,2.38-7.31,5.3-.67,1.99-.59,3.87.25,5.79,1.01,2.27,3.18,3.89,6.06,4.5.83.18,2.98.19,3.84.04,3.34-.62,5.67-2.59,6.64-5.57.23-.71.25-.93.25-2.19s-.03-1.48-.25-2.19c-.95-2.94-3.2-4.87-6.42-5.51-.66-.12-2.49-.23-3.06-.17h0Zm2.03,3.86c1.2.3,2.34,1.04,2.87,1.91.81,1.3.78,3.03-.06,4.27-1.51,2.25-4.96,2.62-7.04.75-1.72-1.56-1.78-4.03-.14-5.71,1.1-1.11,2.84-1.58,4.38-1.22h0Z" fill="#142028" stroke-width="0"/>
      <path d="m144.27,21.9c-3.64.43-6.32,2.38-7.31,5.3-.67,1.99-.59,3.87.25,5.79,1.01,2.27,3.18,3.89,6.06,4.5.83.18,2.98.19,3.84.04,3.34-.62,5.67-2.59,6.64-5.57.23-.71.25-.93.25-2.19s-.03-1.48-.25-2.19c-.95-2.94-3.2-4.87-6.42-5.51-.66-.12-2.49-.23-3.06-.17h0Zm2.05,3.86c1.22.3,2.34,1.04,2.87,1.91.81,1.3.78,3.03-.06,4.27-1.51,2.25-4.96,2.62-7.04.75-1.72-1.56-1.78-4.03-.14-5.71,1.09-1.11,2.84-1.58,4.38-1.22h0Z" fill="#142028" stroke-width="0"/>
      <path d="m168.32,21.95c-2.14.29-3.75,1.58-4.27,3.42-.5,1.74-.15,3.52.85,4.38.59.52,1.29.81,3.24,1.4,1.88.56,2.3.8,2.5,1.4.22.68-.32,1.5-1.15,1.72-.45.11-1.29.11-1.85,0-.61-.14-1.72-.64-2.18-1.02-.21-.18-.45-.32-.49-.32s-.28.33-.51.74c-.32.58-.43.7-.45.54l-.03-.19h-5v-11.79h-4.13v15.11h9.12v-.42c0-.23.02-.41.04-.41s.39.17.83.35c1.35.6,2.21.77,3.89.77s2.4-.14,3.4-.6c.8-.36,1.88-1.37,2.24-2.07.72-1.4.82-3.29.22-4.48-.1-.23-.46-.66-.79-.96-.71-.66-1.46-1.02-3.4-1.6-.77-.23-1.54-.5-1.72-.6-.62-.36-.74-1.15-.26-1.65.85-.86,2.36-.78,3.95.2l.31.18.84-1.51c.45-.81.82-1.51.8-1.51-.1-.09-1.27-.53-1.93-.72-1.4-.41-2.88-.55-4.09-.38h.02Z" fill="#142028" stroke-width="0"/>
      <path d="m54.26,27.13v10.5h3.82c2.1,0,4.31-.06,4.87-.12,4.73-.56,8.22-3.34,9.34-7.42.37-1.36.45-3.74.19-5.15-.54-2.75-2.01-4.96-4.27-6.46-1.02-.67-1.92-1.05-3.39-1.44-1.14-.3-1.32-.3-5.86-.36l-4.69-.05v10.5h-.02Zm8.35-6.21c2.97.61,4.94,3.03,4.94,6.04,0,2-.65,3.72-1.83,4.86-1.17,1.15-2.91,1.71-5.35,1.72h-1.16v-12.78h1.28c.7,0,1.64.08,2.1.17h0Z" fill="#142028" stroke-width="0"/>
      <path d="m73.51,27.12v10.51h17.61s2.27-3.21,2.27-3.21c1.26-1.75,2.31-3.19,2.35-3.19.05,0,1.1,1.44,2.35,3.2l2.28,3.2h2.86c1.57,0,2.85-.04,2.85-.07,0-.04-1.69-2.41-3.72-5.25l-3.72-5.17,3.56-4.99c1.96-2.73,3.68-5.08,3.78-5.22.23-.23.23-.19.23,1.91v2.14h4.33v16.66h5.17v-16.66l2.53-.02,2.52-.04-2.7-4.27h-17.68s-2.27,3.19-2.27,3.19c-1.26,1.75-2.31,3.19-2.35,3.2-.04,0-1.09-1.44-2.35-3.2l-2.28-3.2h-17.61v10.48h-.02Zm15.55-5.26c2.02,2.82,3.68,5.17,3.68,5.25s-1.65,2.45-3.69,5.29l-3.7,5.15-.04-2.01-.02-2.01h-6.97v-4.72h5.64v-3.98h-5.64v-4.1h6.97v-2c0-1.1.02-2,.05-2s1.7,2.31,3.72,5.13Z" fill="#142028" stroke-width="0"/>
      <path d="m17.91,3.12c-3.29,1.72-5.99,3.16-5.99,3.22,0,.16,7.91,4.14,8.19,4.13.12,0,1.05-.43,2.06-.95l1.83-.94,3.99,2.05,3.27-1.47c4.92-2.21,5.43-2.45,5.35-2.52-.1-.11-1.87-1.06-6.67-3.57-2.32-1.21-4.56-2.41-4.99-2.64-.43-.25-.84-.43-.92-.43s-2.84,1.39-6.13,3.11h0ZM3.46,10.58L.02,12.35v7.75c0,4.26.04,7.74.11,7.74.05,0,1.74-.73,3.75-1.62l3.65-1.62v-8.17l1.78.96c1.38.75,2.75,1.49,4.12,2.23l2.35,1.26,1.04-.47c.66-.3,1.3-.6,1.95-.89.51-.24,1.74-.79,2.75-1.23,1.01-.44,1.93-.89,2.07-1,.18-.13-1.97-1.31-7.91-4.36-4.49-2.29-8.3-4.17-8.48-4.16s-1.86.81-3.75,1.79l.02.02Zm33.77.49c-2.34,1.06-4.25,1.96-4.25,2.01s1.28.81,2.83,1.68c1.57.88,2.83,1.63,2.83,1.69s-1.38.73-3.06,1.48c-1.69.76-5.95,2.68-9.48,4.26l-11.8,5.32c-2.98,1.33-5.64,2.55-5.95,2.68-6.06,2.74-7.74,3.5-7.96,3.63-.23.13-.28.89-.32,4.72l-.05,4.56,6.13,3.12,4.26-1.92c2.34-1.06,4.26-1.97,4.26-2.04s-.43-.35-.95-.62c-.53-.28-1.62-.89-2.42-1.37s-1.6-.9-1.78-.96-.32-.16-.32-.23c0-.06,1.87-.95,4.17-1.97,4.45-1.98,7.84-3.51,15.14-6.8,3.26-1.47,6.52-2.94,9.79-4.41,2.87-1.3,6.2-2.8,7.41-3.35l2.19-1.01.1-9.22-3.11-1.58c-1.71-.88-3.18-1.59-3.26-1.59s-2.06.88-4.39,1.92h0Zm9.83,16.65c-.46.23-1.37.65-2.01.94-.65.29-1.88.84-2.74,1.23l-1.56.71-.04,4.05c-.02,2.22-.1,4.04-.18,4.03-.18-.04-3.1-1.51-6.03-3.09-2.12-1.13-2.25-1.18-2.75-.94-.29.14-2,.91-3.82,1.7-1.81.8-3.35,1.5-3.43,1.57-.07.06,3.57,2.03,8.1,4.38l8.23,4.26,3.52-1.81c1.93-1,3.58-1.91,3.65-2.02.18-.25.16-15.45,0-15.43-.07,0-.51.19-.95.42h0Zm-19.49,17.83c-.6.25-1.23.52-1.83.79-1.84.79-1.48.82-3.68-.26-1.46-.73-2.09-.95-2.36-.84-.21.08-1.97.88-3.92,1.75-1.94.88-3.61,1.61-3.69,1.61-.82,0,.54.81,5.79,3.45l6.15,3.1,2.59-1.27c1.42-.7,4.3-2.1,6.38-3.12,2.09-1.02,3.76-1.86,3.74-1.91-.04-.04-1.78-.92-3.89-1.99l-3.82-1.93-1.45.62h0Z" fill="#00b6d6" fill-rule="evenodd" stroke-width="0"/>
    </g>
  </g>
</svg>