<svg width="75" height="63" viewBox="0 0 75 63" fill="none" xmlns="http://www.w3.org/2000/svg">
<path d="M70.2056 0.507954L3.48688 26.246C-1.01561 27.8801 -1.01561 30.7399 2.66825 31.557L19.4503 36.868L25.9993 56.4779C26.818 58.5206 26.4086 59.3377 28.4552 59.3377C30.0925 59.3377 30.9111 58.5206 31.7298 57.7035C32.1391 57.295 35.8229 53.6181 39.9161 49.5327L57.1074 62.1975C60.382 63.8316 62.4285 63.0145 63.2472 59.3377L74.7081 5.81897C75.936 1.32503 73.0708 -1.1262 70.2056 0.507954ZM61.6099 12.7641L29.6832 41.7705L28.4552 55.2523L21.9062 35.6424L59.5633 11.9471C61.2006 10.7214 62.8379 11.5385 61.6099 12.7641Z" fill="white"/>
</svg>
