<svg width="171" height="182" viewBox="0 0 171 182" fill="none" xmlns="http://www.w3.org/2000/svg">
<rect width="8.46291" height="191.573" rx="4.23146" transform="matrix(0.938554 -0.345133 0.370954 0.928651 0.433838 2.9209)" fill="black"/>
<rect width="8.39386" height="161.293" rx="4.19693" transform="matrix(0.829108 0.559088 -0.590928 0.806725 163.115 46.3684)" fill="black"/>
<rect width="10.5992" height="140.245" rx="5.29961" transform="matrix(-0.229186 0.973383 -0.977306 -0.211834 139.491 29.7087)" fill="black"/>
<rect width="11.4133" height="43.9949" rx="5.70664" transform="matrix(-0.574285 0.818656 -0.840059 -0.542495 169.895 50.4155)" fill="black"/>
<rect width="5.8389" height="114.722" rx="2.91945" transform="matrix(-0.767283 0.641309 -0.672201 -0.740369 86.969 89.9385)" fill="black"/>
<rect width="7.18747" height="90.456" rx="3.59373" transform="matrix(0.997148 0.0754644 -0.0819331 0.996638 78.604 86.0332)" fill="black"/>
<rect width="5.95606" height="70.5286" rx="2.97803" transform="matrix(0.750901 0.660415 -0.69079 0.723055 130.105 35.385)" fill="black"/>
<rect width="5.86515" height="88.9198" rx="2.93258" transform="matrix(0.43373 0.901043 -0.914256 0.405137 162.887 50.6348)" fill="black"/>
</svg>
