<svg width="66" height="73" viewBox="0 0 66 73" fill="none" xmlns="http://www.w3.org/2000/svg">
<path d="M39.053 30.855L63.4756 0.000110769L57.6882 0.000100668L36.4822 26.791L19.545 3.40952e-05L0.00989281 0L25.6222 40.5127L0.00976562 72.8688L5.79745 72.8689L28.1916 44.5767L46.0785 72.8689L65.6136 72.8689L39.053 30.855ZM7.88293 4.73532L16.7725 4.73533L57.6909 68.349L48.8013 68.349L7.88293 4.73532Z" fill="white"/>
<path d="M39.053 30.855L63.4756 0.000110769L57.6882 0.000100668L36.4822 26.791L19.545 3.40952e-05L0.00989281 0L25.6222 40.5127L0.00976562 72.8688L5.79745 72.8689L28.1916 44.5767L46.0785 72.8689L65.6136 72.8689L39.053 30.855ZM7.88293 4.73532L16.7725 4.73533L57.6909 68.349L48.8013 68.349L7.88293 4.73532Z" fill="white"/>
<path d="M39.053 30.855L63.4756 0.000110769L57.6882 0.000100668L36.4822 26.791L19.545 3.40952e-05L0.00989281 0L25.6222 40.5127L0.00976562 72.8688L5.79745 72.8689L28.1916 44.5767L46.0785 72.8689L65.6136 72.8689L39.053 30.855ZM7.88293 4.73532L16.7725 4.73533L57.6909 68.349L48.8013 68.349L7.88293 4.73532Z" fill="white"/>
<path d="M39.053 30.855L63.4756 0.000110769L57.6882 0.000100668L36.4822 26.791L19.545 3.40952e-05L0.00989281 0L25.6222 40.5127L0.00976562 72.8688L5.79745 72.8689L28.1916 44.5767L46.0785 72.8689L65.6136 72.8689L39.053 30.855ZM7.88293 4.73532L16.7725 4.73533L57.6909 68.349L48.8013 68.349L7.88293 4.73532Z" fill="white"/>
</svg>
